<svg xmlns="http://www.w3.org/2000/svg" xmlns:xlink="http://www.w3.org/1999/xlink" width="300" zoomAndPan="magnify" viewBox="0 0 224.87999 74.999997" height="100" preserveAspectRatio="xMidYMid meet" version="1.0"><defs><filter x="0%" y="0%" width="100%" height="100%" id="2853f826fa"><feColorMatrix values="0 0 0 0 1 0 0 0 0 1 0 0 0 0 1 0 0 0 1 0" color-interpolation-filters="sRGB"/></filter><g/><mask id="97851cf804"><g filter="url(#2853f826fa)"><rect x="-22.487999" width="269.855988" fill="#000000" y="-7.5" height="89.999996" fill-opacity="0.88"/></g></mask><clipPath id="fb11dcc4ac"><path d="M 0.496094 0.679688 L 34.695312 0.679688 L 34.695312 34.992188 L 0.496094 34.992188 Z M 0.496094 0.679688 " clip-rule="nonzero"/></clipPath><clipPath id="7a75af6867"><rect x="0" width="35" y="0" height="35"/></clipPath><mask id="648e6a3fcc"><g filter="url(#2853f826fa)"><rect x="-22.487999" width="269.855988" fill="#000000" y="-7.5" height="89.999996" fill-opacity="0.88"/></g></mask><clipPath id="992256cb32"><path d="M 0.472656 0.527344 L 36 0.527344 L 36 36 L 0.472656 36 Z M 0.472656 0.527344 " clip-rule="nonzero"/></clipPath><clipPath id="4df1cfe210"><rect x="0" width="37" y="0" height="37"/></clipPath><clipPath id="75a7ca1bb1"><path d="M 169.160156 58 L 222.878906 58 L 222.878906 63 L 169.160156 63 Z M 169.160156 58 " clip-rule="nonzero"/></clipPath><clipPath id="0a5a19d113"><path d="M 155.292969 55 L 164 55 L 164 64.421875 L 155.292969 64.421875 Z M 155.292969 55 " clip-rule="nonzero"/></clipPath><clipPath id="4f25489d0e"><path d="M 155.292969 55 L 165 55 L 165 64.421875 L 155.292969 64.421875 Z M 155.292969 55 " clip-rule="nonzero"/></clipPath><clipPath id="7252b10ee9"><path d="M 159 52 L 168.410156 52 L 168.410156 61 L 159 61 Z M 159 52 " clip-rule="nonzero"/></clipPath><clipPath id="cc49a9b184"><path d="M 159 51.925781 L 168.410156 51.925781 L 168.410156 62 L 159 62 Z M 159 51.925781 " clip-rule="nonzero"/></clipPath></defs><g mask="url(#97851cf804)"><g transform="matrix(1, 0, 0, 1, 7, 19)"><g clip-path="url(#7a75af6867)"><g clip-path="url(#fb11dcc4ac)"><path fill="#05001e" d="M 17.597656 34.878906 C 22.164062 34.878906 26.457031 33.101562 29.6875 29.871094 C 32.917969 26.640625 34.695312 22.347656 34.695312 17.777344 C 34.695312 13.210938 32.917969 8.917969 29.6875 5.6875 C 26.457031 2.457031 22.164062 0.679688 17.597656 0.679688 C 13.027344 0.679688 8.734375 2.457031 5.503906 5.6875 C 2.273438 8.917969 0.496094 13.210938 0.496094 17.777344 C 0.496094 20.324219 1.210938 22.683594 1.242188 22.789062 C 1.527344 23.722656 1.894531 24.632812 2.335938 25.503906 L 0.660156 33.976562 C 0.625 34.144531 0.675781 34.316406 0.796875 34.4375 C 0.914062 34.558594 1.085938 34.617188 1.253906 34.585938 L 9.929688 33.066406 C 10.847656 33.527344 11.8125 33.90625 12.796875 34.195312 C 12.894531 34.222656 15.171875 34.878906 17.597656 34.878906 Z M 17.597656 34.878906 " fill-opacity="1" fill-rule="nonzero"/></g></g></g></g><g mask="url(#648e6a3fcc)"><g transform="matrix(1, 0, 0, 1, 11, 11)"><g clip-path="url(#4df1cfe210)"><g clip-path="url(#992256cb32)"><path fill="#68f48f" d="M 18.136719 35.859375 C 13.417969 35.859375 8.980469 34.019531 5.644531 30.683594 C 2.308594 27.347656 0.472656 22.910156 0.472656 18.191406 C 0.472656 13.472656 2.308594 9.035156 5.644531 5.699219 C 8.980469 2.363281 13.417969 0.527344 18.136719 0.527344 C 22.855469 0.527344 27.292969 2.363281 30.628906 5.699219 C 33.964844 9.035156 35.804688 13.472656 35.804688 18.191406 C 35.804688 20.820312 35.066406 23.257812 35.03125 23.367188 C 34.738281 24.332031 34.359375 25.273438 33.902344 26.171875 L 35.636719 34.925781 C 35.667969 35.097656 35.617188 35.277344 35.492188 35.402344 C 35.371094 35.53125 35.191406 35.585938 35.019531 35.554688 L 26.054688 33.984375 C 25.109375 34.460938 24.113281 34.855469 23.09375 35.152344 C 22.996094 35.179688 20.640625 35.859375 18.136719 35.859375 Z M 18.136719 35.859375 " fill-opacity="1" fill-rule="nonzero"/></g></g></g></g><g fill="#f8f8f8" fill-opacity="1"><g transform="translate(20.825048, 39.501486)"><g><path d="M 15.4375 -5.984375 C 15.4375 -4.035156 14.734375 -2.5 13.328125 -1.375 C 11.929688 -0.257812 9.984375 0.296875 7.484375 0.296875 C 5.179688 0.296875 3.148438 -0.132812 1.390625 -1 L 1.390625 -5.25 C 2.835938 -4.601562 4.066406 -4.144531 5.078125 -3.875 C 6.085938 -3.613281 7.007812 -3.484375 7.84375 -3.484375 C 8.84375 -3.484375 9.609375 -3.671875 10.140625 -4.046875 C 10.679688 -4.429688 10.953125 -5.003906 10.953125 -5.765625 C 10.953125 -6.179688 10.832031 -6.554688 10.59375 -6.890625 C 10.363281 -7.222656 10.019531 -7.539062 9.5625 -7.84375 C 9.101562 -8.144531 8.171875 -8.628906 6.765625 -9.296875 C 5.453125 -9.921875 4.460938 -10.515625 3.796875 -11.078125 C 3.140625 -11.648438 2.613281 -12.3125 2.21875 -13.0625 C 1.832031 -13.820312 1.640625 -14.710938 1.640625 -15.734375 C 1.640625 -17.640625 2.285156 -19.132812 3.578125 -20.21875 C 4.867188 -21.3125 6.65625 -21.859375 8.9375 -21.859375 C 10.050781 -21.859375 11.113281 -21.722656 12.125 -21.453125 C 13.144531 -21.191406 14.210938 -20.820312 15.328125 -20.34375 L 13.859375 -16.78125 C 12.703125 -17.257812 11.75 -17.59375 11 -17.78125 C 10.25 -17.96875 9.507812 -18.0625 8.78125 -18.0625 C 7.914062 -18.0625 7.253906 -17.859375 6.796875 -17.453125 C 6.335938 -17.046875 6.109375 -16.519531 6.109375 -15.875 C 6.109375 -15.46875 6.195312 -15.113281 6.375 -14.8125 C 6.5625 -14.519531 6.859375 -14.234375 7.265625 -13.953125 C 7.679688 -13.671875 8.648438 -13.164062 10.171875 -12.4375 C 12.179688 -11.476562 13.5625 -10.515625 14.3125 -9.546875 C 15.0625 -8.578125 15.4375 -7.390625 15.4375 -5.984375 Z M 15.4375 -5.984375 "/></g></g></g><g fill="#244254" fill-opacity="1"><g transform="translate(46.777591, 47.004399)"><g><path d="M 11.109375 0.25 C 9.398438 0.25 7.863281 -0.046875 6.5 -0.640625 C 5.132812 -1.234375 4.0625 -2.078125 3.28125 -3.171875 C 2.507812 -4.273438 2.125 -5.554688 2.125 -7.015625 L 6.578125 -7.015625 C 6.671875 -5.921875 7.101562 -5.019531 7.875 -4.3125 C 8.644531 -3.601562 9.722656 -3.25 11.109375 -3.25 C 12.546875 -3.25 13.664062 -3.59375 14.46875 -4.28125 C 15.269531 -4.976562 15.671875 -5.878906 15.671875 -6.984375 C 15.671875 -7.835938 15.421875 -8.53125 14.921875 -9.0625 C 14.429688 -9.601562 13.8125 -10.019531 13.0625 -10.3125 C 12.320312 -10.601562 11.296875 -10.914062 9.984375 -11.25 C 8.316406 -11.695312 6.96875 -12.144531 5.9375 -12.59375 C 4.90625 -13.039062 4.019531 -13.738281 3.28125 -14.6875 C 2.550781 -15.644531 2.1875 -16.914062 2.1875 -18.5 C 2.1875 -19.957031 2.550781 -21.234375 3.28125 -22.328125 C 4.019531 -23.421875 5.046875 -24.257812 6.359375 -24.84375 C 7.671875 -25.4375 9.191406 -25.734375 10.921875 -25.734375 C 13.390625 -25.734375 15.40625 -25.113281 16.96875 -23.875 C 18.539062 -22.644531 19.414062 -20.960938 19.59375 -18.828125 L 14.984375 -18.828125 C 14.910156 -19.742188 14.472656 -20.53125 13.671875 -21.1875 C 12.867188 -21.851562 11.804688 -22.1875 10.484375 -22.1875 C 9.296875 -22.1875 8.320312 -21.878906 7.5625 -21.265625 C 6.8125 -20.660156 6.4375 -19.785156 6.4375 -18.640625 C 6.4375 -17.859375 6.671875 -17.21875 7.140625 -16.71875 C 7.617188 -16.21875 8.222656 -15.820312 8.953125 -15.53125 C 9.679688 -15.238281 10.679688 -14.921875 11.953125 -14.578125 C 13.628906 -14.117188 15 -13.65625 16.0625 -13.1875 C 17.125 -12.726562 18.023438 -12.015625 18.765625 -11.046875 C 19.503906 -10.085938 19.875 -8.804688 19.875 -7.203125 C 19.875 -5.910156 19.523438 -4.691406 18.828125 -3.546875 C 18.140625 -2.398438 17.128906 -1.476562 15.796875 -0.78125 C 14.472656 -0.09375 12.910156 0.25 11.109375 0.25 Z M 11.109375 0.25 "/></g></g></g><g fill="#244254" fill-opacity="1"><g transform="translate(67.31744, 47.004399)"><g><path d="M 11.46875 0.328125 C 9.570312 0.328125 7.851562 -0.101562 6.3125 -0.96875 C 4.78125 -1.832031 3.578125 -3.050781 2.703125 -4.625 C 1.828125 -6.195312 1.390625 -8.019531 1.390625 -10.09375 C 1.390625 -12.132812 1.835938 -13.945312 2.734375 -15.53125 C 3.640625 -17.113281 4.867188 -18.332031 6.421875 -19.1875 C 7.984375 -20.039062 9.726562 -20.46875 11.65625 -20.46875 C 13.582031 -20.46875 15.320312 -20.039062 16.875 -19.1875 C 18.4375 -18.332031 19.664062 -17.113281 20.5625 -15.53125 C 21.46875 -13.945312 21.921875 -12.132812 21.921875 -10.09375 C 21.921875 -8.039062 21.457031 -6.222656 20.53125 -4.640625 C 19.613281 -3.054688 18.351562 -1.832031 16.75 -0.96875 C 15.15625 -0.101562 13.394531 0.328125 11.46875 0.328125 Z M 11.46875 -3.296875 C 12.539062 -3.296875 13.546875 -3.550781 14.484375 -4.0625 C 15.421875 -4.570312 16.179688 -5.335938 16.765625 -6.359375 C 17.359375 -7.378906 17.65625 -8.625 17.65625 -10.09375 C 17.65625 -11.550781 17.375 -12.785156 16.8125 -13.796875 C 16.25 -14.804688 15.503906 -15.566406 14.578125 -16.078125 C 13.648438 -16.585938 12.648438 -16.84375 11.578125 -16.84375 C 10.515625 -16.84375 9.523438 -16.585938 8.609375 -16.078125 C 7.691406 -15.566406 6.960938 -14.804688 6.421875 -13.796875 C 5.890625 -12.785156 5.625 -11.550781 5.625 -10.09375 C 5.625 -7.914062 6.175781 -6.238281 7.28125 -5.0625 C 8.394531 -3.882812 9.789062 -3.296875 11.46875 -3.296875 Z M 11.46875 -3.296875 "/></g></g></g><g fill="#244254" fill-opacity="1"><g transform="translate(89.099939, 47.004399)"><g><path d="M 6.90625 -27.046875 L 6.90625 0 L 2.734375 0 L 2.734375 -27.046875 Z M 6.90625 -27.046875 "/></g></g></g><g fill="#244254" fill-opacity="1"><g transform="translate(97.213278, 47.004399)"><g><path d="M 20.984375 -20.140625 L 20.984375 0 L 16.8125 0 L 16.8125 -2.375 C 16.15625 -1.550781 15.296875 -0.898438 14.234375 -0.421875 C 13.171875 0.0546875 12.046875 0.296875 10.859375 0.296875 C 9.273438 0.296875 7.851562 -0.03125 6.59375 -0.6875 C 5.34375 -1.351562 4.359375 -2.332031 3.640625 -3.625 C 2.921875 -4.914062 2.5625 -6.472656 2.5625 -8.296875 L 2.5625 -20.140625 L 6.6875 -20.140625 L 6.6875 -8.921875 C 6.6875 -7.117188 7.132812 -5.734375 8.03125 -4.765625 C 8.9375 -3.804688 10.171875 -3.328125 11.734375 -3.328125 C 13.296875 -3.328125 14.53125 -3.804688 15.4375 -4.765625 C 16.351562 -5.734375 16.8125 -7.117188 16.8125 -8.921875 L 16.8125 -20.140625 Z M 20.984375 -20.140625 "/></g></g></g><g fill="#244254" fill-opacity="1"><g transform="translate(119.397815, 47.004399)"><g><path d="M 10.046875 0.328125 C 8.460938 0.328125 7.039062 0.0390625 5.78125 -0.53125 C 4.53125 -1.101562 3.539062 -1.878906 2.8125 -2.859375 C 2.082031 -3.847656 1.691406 -4.953125 1.640625 -6.171875 L 5.953125 -6.171875 C 6.023438 -5.316406 6.429688 -4.601562 7.171875 -4.03125 C 7.921875 -3.457031 8.859375 -3.171875 9.984375 -3.171875 C 11.148438 -3.171875 12.054688 -3.394531 12.703125 -3.84375 C 13.347656 -4.300781 13.671875 -4.882812 13.671875 -5.59375 C 13.671875 -6.34375 13.3125 -6.898438 12.59375 -7.265625 C 11.875 -7.640625 10.734375 -8.046875 9.171875 -8.484375 C 7.660156 -8.890625 6.429688 -9.285156 5.484375 -9.671875 C 4.535156 -10.066406 3.710938 -10.664062 3.015625 -11.46875 C 2.316406 -12.28125 1.96875 -13.34375 1.96875 -14.65625 C 1.96875 -15.726562 2.285156 -16.707031 2.921875 -17.59375 C 3.554688 -18.488281 4.460938 -19.191406 5.640625 -19.703125 C 6.828125 -20.210938 8.1875 -20.46875 9.71875 -20.46875 C 12.007812 -20.46875 13.851562 -19.890625 15.25 -18.734375 C 16.65625 -17.578125 17.40625 -16 17.5 -14 L 13.34375 -14 C 13.269531 -14.894531 12.898438 -15.609375 12.234375 -16.140625 C 11.578125 -16.679688 10.691406 -16.953125 9.578125 -16.953125 C 8.484375 -16.953125 7.640625 -16.742188 7.046875 -16.328125 C 6.460938 -15.921875 6.171875 -15.375 6.171875 -14.6875 C 6.171875 -14.15625 6.363281 -13.707031 6.75 -13.34375 C 7.144531 -12.976562 7.625 -12.691406 8.1875 -12.484375 C 8.75 -12.273438 9.578125 -12.007812 10.671875 -11.6875 C 12.128906 -11.300781 13.328125 -10.90625 14.265625 -10.5 C 15.203125 -10.101562 16.007812 -9.515625 16.6875 -8.734375 C 17.375 -7.953125 17.734375 -6.914062 17.765625 -5.625 C 17.765625 -4.476562 17.445312 -3.453125 16.8125 -2.546875 C 16.175781 -1.648438 15.28125 -0.945312 14.125 -0.4375 C 12.96875 0.0703125 11.609375 0.328125 10.046875 0.328125 Z M 10.046875 0.328125 "/></g></g></g><g fill="#244254" fill-opacity="1"><g transform="translate(137.379257, 47.004399)"><g><path d="M 1.359375 -12.75 C 1.359375 -15.238281 1.9375 -17.46875 3.09375 -19.4375 C 4.25 -21.414062 5.816406 -22.957031 7.796875 -24.0625 C 9.785156 -25.175781 11.960938 -25.734375 14.328125 -25.734375 C 17.035156 -25.734375 19.441406 -25.066406 21.546875 -23.734375 C 23.648438 -22.410156 25.175781 -20.53125 26.125 -18.09375 L 21.125 -18.09375 C 20.46875 -19.425781 19.550781 -20.421875 18.375 -21.078125 C 17.207031 -21.742188 15.859375 -22.078125 14.328125 -22.078125 C 12.640625 -22.078125 11.140625 -21.695312 9.828125 -20.9375 C 8.515625 -20.1875 7.484375 -19.101562 6.734375 -17.6875 C 5.992188 -16.269531 5.625 -14.625 5.625 -12.75 C 5.625 -10.875 5.992188 -9.226562 6.734375 -7.8125 C 7.484375 -6.40625 8.515625 -5.316406 9.828125 -4.546875 C 11.140625 -3.785156 12.640625 -3.40625 14.328125 -3.40625 C 15.859375 -3.40625 17.207031 -3.734375 18.375 -4.390625 C 19.550781 -5.046875 20.46875 -6.039062 21.125 -7.375 L 26.125 -7.375 C 25.175781 -4.945312 23.648438 -3.070312 21.546875 -1.75 C 19.441406 -0.4375 17.035156 0.21875 14.328125 0.21875 C 11.941406 0.21875 9.757812 -0.332031 7.78125 -1.4375 C 5.8125 -2.550781 4.25 -4.09375 3.09375 -6.0625 C 1.9375 -8.039062 1.359375 -10.269531 1.359375 -12.75 Z M 1.359375 -12.75 "/></g></g></g><g fill="#244254" fill-opacity="1"><g transform="translate(164.095807, 47.004399)"><g><path d="M 13.15625 -20.46875 C 14.6875 -20.46875 16.054688 -20.140625 17.265625 -19.484375 C 18.472656 -18.828125 19.421875 -17.851562 20.109375 -16.5625 C 20.804688 -15.269531 21.15625 -13.707031 21.15625 -11.875 L 21.15625 0 L 17.03125 0 L 17.03125 -11.25 C 17.03125 -13.050781 16.578125 -14.429688 15.671875 -15.390625 C 14.773438 -16.359375 13.546875 -16.84375 11.984375 -16.84375 C 10.421875 -16.84375 9.179688 -16.359375 8.265625 -15.390625 C 7.359375 -14.429688 6.90625 -13.050781 6.90625 -11.25 L 6.90625 0 L 2.734375 0 L 2.734375 -27.046875 L 6.90625 -27.046875 L 6.90625 -17.796875 C 7.613281 -18.648438 8.507812 -19.304688 9.59375 -19.765625 C 10.675781 -20.234375 11.863281 -20.46875 13.15625 -20.46875 Z M 13.15625 -20.46875 "/></g></g></g><g fill="#244254" fill-opacity="1"><g transform="translate(186.280344, 47.004399)"><g><path d="M 1.359375 -10.15625 C 1.359375 -12.175781 1.773438 -13.96875 2.609375 -15.53125 C 3.453125 -17.09375 4.597656 -18.304688 6.046875 -19.171875 C 7.492188 -20.035156 9.097656 -20.46875 10.859375 -20.46875 C 12.441406 -20.46875 13.820312 -20.15625 15 -19.53125 C 16.1875 -18.914062 17.128906 -18.144531 17.828125 -17.21875 L 17.828125 -20.140625 L 22.03125 -20.140625 L 22.03125 0 L 17.828125 0 L 17.828125 -3 C 17.128906 -2.050781 16.171875 -1.257812 14.953125 -0.625 C 13.734375 0.0078125 12.34375 0.328125 10.78125 0.328125 C 9.050781 0.328125 7.46875 -0.113281 6.03125 -1 C 4.59375 -1.894531 3.453125 -3.140625 2.609375 -4.734375 C 1.773438 -6.328125 1.359375 -8.132812 1.359375 -10.15625 Z M 17.828125 -10.09375 C 17.828125 -11.476562 17.539062 -12.679688 16.96875 -13.703125 C 16.40625 -14.722656 15.660156 -15.5 14.734375 -16.03125 C 13.804688 -16.570312 12.804688 -16.84375 11.734375 -16.84375 C 10.660156 -16.84375 9.660156 -16.582031 8.734375 -16.0625 C 7.804688 -15.539062 7.054688 -14.773438 6.484375 -13.765625 C 5.910156 -12.753906 5.625 -11.550781 5.625 -10.15625 C 5.625 -8.769531 5.910156 -7.550781 6.484375 -6.5 C 7.054688 -5.457031 7.8125 -4.660156 8.75 -4.109375 C 9.6875 -3.566406 10.679688 -3.296875 11.734375 -3.296875 C 12.804688 -3.296875 13.804688 -3.5625 14.734375 -4.09375 C 15.660156 -4.625 16.40625 -5.40625 16.96875 -6.4375 C 17.539062 -7.476562 17.828125 -8.695312 17.828125 -10.09375 Z M 17.828125 -10.09375 "/></g></g></g><g fill="#244254" fill-opacity="1"><g transform="translate(209.524779, 47.004399)"><g><path d="M 7.609375 -16.734375 L 7.609375 -5.59375 C 7.609375 -4.832031 7.78125 -4.285156 8.125 -3.953125 C 8.476562 -3.628906 9.082031 -3.46875 9.9375 -3.46875 L 12.5 -3.46875 L 12.5 0 L 9.203125 0 C 7.328125 0 5.890625 -0.4375 4.890625 -1.3125 C 3.898438 -2.1875 3.40625 -3.613281 3.40625 -5.59375 L 3.40625 -16.734375 L 1.015625 -16.734375 L 1.015625 -20.140625 L 3.40625 -20.140625 L 3.40625 -25.140625 L 7.609375 -25.140625 L 7.609375 -20.140625 L 12.5 -20.140625 L 12.5 -16.734375 Z M 7.609375 -16.734375 "/></g></g></g><g clip-path="url(#75a7ca1bb1)"><path fill="#244254" d="M 169.558594 58.960938 L 171.824219 58.960938 C 172.195312 58.960938 172.46875 59.046875 172.640625 59.214844 C 172.816406 59.382812 172.902344 59.636719 172.902344 59.980469 C 172.902344 60.207031 172.851562 60.394531 172.753906 60.535156 C 172.65625 60.675781 172.535156 60.773438 172.390625 60.832031 C 172.699219 60.914062 172.90625 61.117188 173.015625 61.441406 C 173.054688 61.558594 173.070312 61.695312 173.070312 61.851562 C 173.070312 62.222656 172.984375 62.492188 172.8125 62.667969 C 172.636719 62.839844 172.367188 62.925781 171.996094 62.925781 L 169.558594 62.925781 Z M 172.050781 61.679688 C 172.050781 61.453125 171.9375 61.339844 171.710938 61.339844 L 170.578125 61.339844 L 170.578125 62.132812 L 171.710938 62.132812 C 171.9375 62.132812 172.050781 62.019531 172.050781 61.792969 Z M 171.882812 60.09375 C 171.882812 59.867188 171.769531 59.753906 171.542969 59.753906 L 170.578125 59.753906 L 170.578125 60.546875 L 171.542969 60.546875 C 171.769531 60.546875 171.882812 60.433594 171.882812 60.207031 Z M 176.132812 58.960938 L 177.152344 58.960938 L 177.152344 61.851562 C 177.152344 62.246094 177.058594 62.535156 176.878906 62.71875 C 176.703125 62.894531 176.414062 62.984375 176.019531 62.984375 L 174.714844 62.984375 C 174.316406 62.984375 174.027344 62.894531 173.847656 62.71875 C 173.671875 62.535156 173.582031 62.246094 173.582031 61.851562 L 173.582031 58.960938 L 174.601562 58.960938 L 174.601562 61.851562 C 174.601562 62.078125 174.714844 62.191406 174.941406 62.191406 L 175.792969 62.191406 C 176.019531 62.191406 176.132812 62.078125 176.132812 61.851562 Z M 180.039062 58.960938 C 180.46875 58.960938 180.789062 59.074219 181.007812 59.296875 C 181.230469 59.515625 181.34375 59.839844 181.34375 60.265625 L 181.34375 61.625 C 181.34375 62.050781 181.230469 62.375 181.007812 62.597656 C 180.789062 62.816406 180.46875 62.925781 180.039062 62.925781 L 177.832031 62.925781 L 177.832031 58.960938 Z M 180.324219 60.265625 C 180.324219 59.925781 180.152344 59.753906 179.8125 59.753906 L 178.851562 59.753906 L 178.851562 62.132812 L 179.8125 62.132812 C 180.152344 62.132812 180.324219 61.964844 180.324219 61.625 Z M 184.117188 58.960938 C 184.546875 58.960938 184.867188 59.074219 185.085938 59.296875 C 185.308594 59.515625 185.421875 59.839844 185.421875 60.265625 L 185.421875 61.625 C 185.421875 62.050781 185.308594 62.375 185.085938 62.597656 C 184.867188 62.816406 184.546875 62.925781 184.117188 62.925781 L 181.910156 62.925781 L 181.910156 58.960938 Z M 184.402344 60.265625 C 184.402344 59.925781 184.230469 59.753906 183.890625 59.753906 L 182.929688 59.753906 L 182.929688 62.132812 L 183.890625 62.132812 C 184.230469 62.132812 184.402344 61.964844 184.402344 61.625 Z M 185.421875 58.960938 L 186.5 58.960938 L 187.433594 60.886719 L 188.367188 58.960938 L 189.445312 58.960938 L 187.945312 61.878906 L 187.945312 62.925781 L 186.921875 62.925781 L 186.921875 61.878906 Z M 191.25 62.105469 C 192.285156 62.164062 192.988281 62.191406 193.351562 62.191406 C 193.441406 62.191406 193.507812 62.167969 193.558594 62.117188 C 193.609375 62.066406 193.636719 61.996094 193.636719 61.90625 L 193.636719 61.398438 L 192.332031 61.398438 C 191.9375 61.398438 191.648438 61.308594 191.464844 61.132812 C 191.289062 60.949219 191.199219 60.660156 191.199219 60.265625 L 191.199219 60.09375 C 191.199219 59.699219 191.289062 59.410156 191.464844 59.234375 C 191.648438 59.050781 191.9375 58.960938 192.332031 58.960938 L 194.320312 58.960938 L 194.320312 59.753906 L 192.558594 59.753906 C 192.332031 59.753906 192.21875 59.867188 192.21875 60.09375 L 192.21875 60.207031 C 192.21875 60.433594 192.332031 60.546875 192.558594 60.546875 L 193.578125 60.546875 C 193.949219 60.546875 194.222656 60.636719 194.394531 60.808594 C 194.570312 60.980469 194.65625 61.253906 194.65625 61.625 L 194.65625 61.90625 C 194.65625 62.277344 194.570312 62.550781 194.394531 62.722656 C 194.222656 62.898438 193.949219 62.984375 193.578125 62.984375 C 193.386719 62.984375 193.183594 62.980469 192.96875 62.972656 L 192.445312 62.949219 C 192.0625 62.929688 191.664062 62.90625 191.25 62.871094 Z M 197.714844 60.039062 C 197.714844 59.8125 197.601562 59.699219 197.375 59.699219 L 196.410156 59.699219 C 196.183594 59.699219 196.070312 59.8125 196.070312 60.039062 L 196.070312 61.851562 C 196.070312 62.078125 196.183594 62.191406 196.410156 62.191406 L 197.375 62.191406 C 197.601562 62.191406 197.714844 62.078125 197.714844 61.851562 Z M 198.734375 61.851562 C 198.734375 62.246094 198.644531 62.535156 198.460938 62.71875 C 198.285156 62.894531 198 62.984375 197.601562 62.984375 L 196.183594 62.984375 C 195.789062 62.984375 195.5 62.894531 195.316406 62.71875 C 195.140625 62.535156 195.050781 62.246094 195.050781 61.851562 L 195.050781 60.039062 C 195.050781 59.640625 195.140625 59.355469 195.316406 59.175781 C 195.5 58.996094 195.789062 58.90625 196.183594 58.90625 L 197.601562 58.90625 C 198 58.90625 198.285156 58.996094 198.460938 59.175781 C 198.644531 59.355469 198.734375 59.640625 198.734375 60.039062 Z M 200.324219 62.925781 L 199.304688 62.925781 L 199.304688 58.960938 L 202.449219 58.960938 L 202.449219 59.753906 L 200.324219 59.753906 L 200.324219 60.691406 L 201.996094 60.691406 L 201.996094 61.484375 L 200.324219 61.484375 Z M 204.769531 62.925781 L 203.75 62.925781 L 203.75 59.753906 L 202.5625 59.753906 L 202.5625 58.960938 L 205.960938 58.960938 L 205.960938 59.753906 L 204.769531 59.753906 Z M 209.246094 58.960938 L 209.925781 61.511719 L 210.523438 58.960938 L 211.628906 58.960938 L 210.550781 62.925781 L 209.472656 62.925781 L 208.792969 60.464844 L 208.113281 62.925781 L 207.039062 62.925781 L 205.960938 58.960938 L 207.066406 58.960938 L 207.660156 61.511719 L 208.339844 58.960938 Z M 212.339844 62.925781 L 211.234375 62.925781 L 212.734375 58.960938 L 213.867188 58.960938 L 215.371094 62.925781 L 214.265625 62.925781 L 214.011719 62.21875 L 212.59375 62.21875 Z M 212.847656 61.484375 L 213.753906 61.484375 L 213.300781 60.152344 Z M 215.652344 58.960938 L 218.03125 58.960938 C 218.429688 58.960938 218.714844 59.050781 218.894531 59.234375 C 219.074219 59.410156 219.167969 59.699219 219.167969 60.09375 L 219.167969 60.605469 C 219.167969 60.917969 219.113281 61.160156 219.007812 61.335938 C 218.90625 61.507812 218.742188 61.625 218.515625 61.679688 L 219.222656 62.925781 L 218.117188 62.925781 L 217.464844 61.738281 L 216.671875 61.738281 L 216.671875 62.925781 L 215.652344 62.925781 Z M 218.144531 60.09375 C 218.144531 59.867188 218.03125 59.753906 217.804688 59.753906 L 216.671875 59.753906 L 216.671875 60.945312 L 217.804688 60.945312 C 218.03125 60.945312 218.144531 60.832031 218.144531 60.605469 Z M 222.875 62.925781 L 219.730469 62.925781 L 219.730469 58.960938 L 222.875 58.960938 L 222.875 59.753906 L 220.75 59.753906 L 220.75 60.519531 L 222.421875 60.519531 L 222.421875 61.3125 L 220.75 61.3125 L 220.75 62.132812 L 222.875 62.132812 Z M 222.875 62.925781 " fill-opacity="1" fill-rule="nonzero"/></g><g clip-path="url(#0a5a19d113)"><path fill="#244254" d="M 159.65625 57.042969 L 157.542969 55.777344 L 155.386719 57.042969 L 155.386719 62.019531 L 159.703125 64.554688 L 163.976562 62.019531 L 163.976562 57.042969 L 161.863281 58.3125 L 161.863281 60.796875 L 159.703125 62.019531 L 157.542969 60.796875 L 157.542969 58.265625 Z M 159.65625 57.042969 " fill-opacity="1" fill-rule="nonzero"/></g><g clip-path="url(#4f25489d0e)"><path stroke-linecap="butt" transform="matrix(0.0938715, 0, 0, 0.0938715, 155.291997, 51.927485)" fill="none" stroke-linejoin="miter" d="M 46.491771 54.494527 L 23.979285 41.012003 L 1.009059 54.494527 L 1.009059 107.509142 L 46.991124 134.515802 L 92.515448 107.509142 L 92.515448 54.494527 L 70.002962 68.018663 L 70.002962 94.484358 L 46.991124 107.509142 L 23.979285 94.484358 L 23.979285 67.51931 Z M 46.491771 54.494527 " stroke="#8109ab" stroke-width="1" stroke-opacity="1" stroke-miterlimit="4"/></g><g clip-path="url(#7252b10ee9)"><path fill="#244254" d="M 164.023438 59.53125 L 166.132812 60.796875 L 168.292969 59.53125 L 168.292969 54.554688 L 163.976562 52.019531 L 159.703125 54.554688 L 159.703125 59.53125 L 161.816406 58.265625 L 161.816406 55.777344 L 163.976562 54.554688 L 166.132812 55.777344 L 166.132812 58.3125 Z M 164.023438 59.53125 " fill-opacity="1" fill-rule="nonzero"/></g><g clip-path="url(#cc49a9b184)"><path stroke-linecap="butt" transform="matrix(0.0938715, 0, 0, 0.0938715, 155.291997, 51.927485)" fill="none" stroke-linejoin="miter" d="M 93.014801 81.001834 L 115.485674 94.484358 L 138.497512 81.001834 L 138.497512 27.987219 L 92.515448 0.980559 L 46.991124 27.987219 L 46.991124 81.001834 L 69.503609 67.51931 L 69.503609 41.012003 L 92.515448 27.987219 L 115.485674 41.012003 L 115.485674 68.018663 Z M 93.014801 81.001834 " stroke="#8109ab" stroke-width="1" stroke-opacity="1" stroke-miterlimit="4"/></g><g fill="#244254" fill-opacity="1"><g transform="translate(179.115089, 56.670476)"><g><path d="M 1.234375 0 L 0.265625 0 L 0.265625 -2.328125 L 1.84375 -2.328125 C 2.226562 -2.328125 2.535156 -2.296875 2.765625 -2.234375 C 3.003906 -2.179688 3.175781 -2.09375 3.28125 -1.96875 C 3.382812 -1.851562 3.4375 -1.695312 3.4375 -1.5 C 3.4375 -1.300781 3.382812 -1.140625 3.28125 -1.015625 C 3.175781 -0.898438 3.003906 -0.8125 2.765625 -0.75 C 2.535156 -0.695312 2.226562 -0.671875 1.84375 -0.671875 L 1.234375 -0.671875 Z M 1.234375 -1.25 L 1.796875 -1.25 C 1.953125 -1.25 2.070312 -1.253906 2.15625 -1.265625 C 2.25 -1.273438 2.316406 -1.289062 2.359375 -1.3125 C 2.398438 -1.34375 2.425781 -1.375 2.4375 -1.40625 C 2.457031 -1.4375 2.46875 -1.46875 2.46875 -1.5 C 2.46875 -1.539062 2.457031 -1.578125 2.4375 -1.609375 C 2.425781 -1.640625 2.398438 -1.664062 2.359375 -1.6875 C 2.316406 -1.707031 2.25 -1.722656 2.15625 -1.734375 C 2.070312 -1.742188 1.953125 -1.75 1.796875 -1.75 L 1.234375 -1.75 Z M 1.234375 -1.25 "/></g></g><g transform="translate(182.691534, 56.670476)"><g><path d="M 1.765625 0.046875 C 1.191406 0.046875 0.765625 -0.0703125 0.484375 -0.3125 C 0.242188 -0.519531 0.125 -0.804688 0.125 -1.171875 C 0.125 -1.523438 0.242188 -1.804688 0.484375 -2.015625 C 0.765625 -2.253906 1.191406 -2.375 1.765625 -2.375 C 2.335938 -2.375 2.757812 -2.253906 3.03125 -2.015625 C 3.269531 -1.804688 3.390625 -1.523438 3.390625 -1.171875 C 3.390625 -0.804688 3.269531 -0.519531 3.03125 -0.3125 C 2.757812 -0.0703125 2.335938 0.046875 1.765625 0.046875 Z M 1.765625 -0.578125 C 2.003906 -0.578125 2.175781 -0.644531 2.28125 -0.78125 C 2.375 -0.882812 2.421875 -1.015625 2.421875 -1.171875 C 2.421875 -1.316406 2.375 -1.441406 2.28125 -1.546875 C 2.175781 -1.679688 2.003906 -1.75 1.765625 -1.75 C 1.523438 -1.75 1.347656 -1.679688 1.234375 -1.546875 C 1.148438 -1.441406 1.109375 -1.316406 1.109375 -1.171875 C 1.109375 -1.015625 1.148438 -0.882812 1.234375 -0.78125 C 1.347656 -0.644531 1.523438 -0.578125 1.765625 -0.578125 Z M 1.765625 -0.578125 "/></g></g><g transform="translate(186.220813, 56.670476)"><g><path d="M 3.921875 0 L 3.109375 0 L 2.53125 -1.515625 L 1.96875 0 L 1.140625 0 L 0.03125 -2.328125 L 1.015625 -2.328125 L 1.59375 -0.84375 L 2.234375 -2.328125 L 2.84375 -2.328125 L 3.46875 -0.84375 L 4.0625 -2.328125 L 5.046875 -2.328125 Z M 3.921875 0 "/></g></g><g transform="translate(191.298421, 56.670476)"><g><path d="M 3.0625 0 L 0.265625 0 L 0.265625 -2.328125 L 2.9375 -2.328125 L 2.9375 -1.75 L 1.234375 -1.75 L 1.234375 -1.390625 L 2.671875 -1.390625 L 2.671875 -0.9375 L 1.234375 -0.9375 L 1.234375 -0.578125 L 3.0625 -0.578125 Z M 3.0625 0 "/></g></g><g transform="translate(194.499169, 56.670476)"><g><path d="M 3.4375 0 L 2.515625 0 C 2.472656 -0.0625 2.441406 -0.132812 2.421875 -0.21875 C 2.410156 -0.289062 2.390625 -0.359375 2.359375 -0.421875 C 2.328125 -0.492188 2.273438 -0.550781 2.203125 -0.59375 C 2.128906 -0.644531 2.019531 -0.671875 1.875 -0.671875 L 1.234375 -0.671875 L 1.234375 0 L 0.265625 0 L 0.265625 -2.328125 L 1.84375 -2.328125 C 2.226562 -2.328125 2.535156 -2.296875 2.765625 -2.234375 C 3.003906 -2.179688 3.175781 -2.09375 3.28125 -1.96875 C 3.382812 -1.851562 3.4375 -1.695312 3.4375 -1.5 C 3.4375 -1.332031 3.398438 -1.191406 3.328125 -1.078125 C 3.253906 -0.972656 3.140625 -0.890625 2.984375 -0.828125 C 3.140625 -0.765625 3.238281 -0.6875 3.28125 -0.59375 C 3.320312 -0.5 3.347656 -0.398438 3.359375 -0.296875 C 3.378906 -0.203125 3.40625 -0.101562 3.4375 0 Z M 1.234375 -1.25 L 1.796875 -1.25 C 1.953125 -1.25 2.070312 -1.253906 2.15625 -1.265625 C 2.25 -1.285156 2.316406 -1.304688 2.359375 -1.328125 C 2.398438 -1.347656 2.425781 -1.375 2.4375 -1.40625 C 2.457031 -1.4375 2.46875 -1.46875 2.46875 -1.5 C 2.46875 -1.53125 2.457031 -1.5625 2.4375 -1.59375 C 2.425781 -1.625 2.398438 -1.648438 2.359375 -1.671875 C 2.316406 -1.703125 2.25 -1.722656 2.15625 -1.734375 C 2.070312 -1.742188 1.953125 -1.75 1.796875 -1.75 L 1.234375 -1.75 Z M 1.234375 -1.25 "/></g></g><g transform="translate(198.075613, 56.670476)"><g><path d="M 3.0625 0 L 0.265625 0 L 0.265625 -2.328125 L 2.9375 -2.328125 L 2.9375 -1.75 L 1.234375 -1.75 L 1.234375 -1.390625 L 2.671875 -1.390625 L 2.671875 -0.9375 L 1.234375 -0.9375 L 1.234375 -0.578125 L 3.0625 -0.578125 Z M 3.0625 0 "/></g></g><g transform="translate(201.276361, 56.670476)"><g><path d="M 1.8125 0 L 0.265625 0 L 0.265625 -2.328125 L 1.8125 -2.328125 C 2.457031 -2.328125 2.921875 -2.238281 3.203125 -2.0625 C 3.421875 -1.914062 3.546875 -1.71875 3.578125 -1.46875 C 3.597656 -1.363281 3.609375 -1.265625 3.609375 -1.171875 C 3.609375 -1.066406 3.597656 -0.957031 3.578125 -0.84375 C 3.566406 -0.738281 3.53125 -0.632812 3.46875 -0.53125 C 3.414062 -0.4375 3.320312 -0.347656 3.1875 -0.265625 C 3.0625 -0.179688 2.890625 -0.113281 2.671875 -0.0625 C 2.453125 -0.0195312 2.164062 0 1.8125 0 Z M 1.734375 -0.578125 C 2.222656 -0.578125 2.503906 -0.703125 2.578125 -0.953125 C 2.585938 -1.023438 2.59375 -1.097656 2.59375 -1.171875 C 2.59375 -1.234375 2.582031 -1.300781 2.5625 -1.375 C 2.550781 -1.445312 2.515625 -1.507812 2.453125 -1.5625 C 2.398438 -1.625 2.3125 -1.671875 2.1875 -1.703125 C 2.070312 -1.734375 1.921875 -1.75 1.734375 -1.75 L 1.234375 -1.75 L 1.234375 -0.578125 Z M 1.734375 -0.578125 "/></g></g><g transform="translate(205.012193, 56.670476)"><g/></g><g transform="translate(205.838402, 56.670476)"><g><path d="M 1.9375 0 L 0.265625 0 L 0.265625 -2.328125 L 1.96875 -2.328125 C 2.269531 -2.328125 2.519531 -2.3125 2.71875 -2.28125 C 2.914062 -2.257812 3.066406 -2.21875 3.171875 -2.15625 C 3.273438 -2.101562 3.34375 -2.03125 3.375 -1.9375 C 3.414062 -1.84375 3.4375 -1.734375 3.4375 -1.609375 C 3.4375 -1.503906 3.410156 -1.421875 3.359375 -1.359375 C 3.304688 -1.296875 3.242188 -1.25 3.171875 -1.21875 C 3.109375 -1.1875 3.050781 -1.171875 3 -1.171875 C 3.050781 -1.171875 3.109375 -1.160156 3.171875 -1.140625 C 3.242188 -1.117188 3.3125 -1.085938 3.375 -1.046875 C 3.4375 -1.003906 3.488281 -0.957031 3.53125 -0.90625 C 3.582031 -0.851562 3.609375 -0.789062 3.609375 -0.71875 C 3.609375 -0.632812 3.597656 -0.550781 3.578125 -0.46875 C 3.554688 -0.394531 3.507812 -0.328125 3.4375 -0.265625 C 3.375 -0.210938 3.28125 -0.164062 3.15625 -0.125 C 3.039062 -0.0820312 2.878906 -0.0507812 2.671875 -0.03125 C 2.472656 -0.0078125 2.226562 0 1.9375 0 Z M 1.875 -1.359375 C 2.019531 -1.359375 2.128906 -1.363281 2.203125 -1.375 C 2.285156 -1.394531 2.34375 -1.421875 2.375 -1.453125 C 2.40625 -1.484375 2.421875 -1.519531 2.421875 -1.5625 C 2.421875 -1.601562 2.40625 -1.640625 2.375 -1.671875 C 2.34375 -1.703125 2.285156 -1.722656 2.203125 -1.734375 C 2.128906 -1.742188 2.019531 -1.75 1.875 -1.75 L 1.234375 -1.75 L 1.234375 -1.359375 Z M 1.875 -0.578125 C 2.019531 -0.578125 2.140625 -0.578125 2.234375 -0.578125 C 2.328125 -0.585938 2.394531 -0.601562 2.4375 -0.625 C 2.476562 -0.65625 2.5 -0.703125 2.5 -0.765625 C 2.5 -0.828125 2.476562 -0.867188 2.4375 -0.890625 C 2.394531 -0.921875 2.328125 -0.941406 2.234375 -0.953125 C 2.140625 -0.960938 2.019531 -0.96875 1.875 -0.96875 L 1.234375 -0.96875 L 1.234375 -0.578125 Z M 1.875 -0.578125 "/></g></g><g transform="translate(209.574233, 56.670476)"><g><path d="M 2.28125 0 L 1.296875 0 L 1.296875 -1.109375 L 0.03125 -2.328125 L 1.109375 -2.328125 L 1.78125 -1.640625 L 2.46875 -2.328125 L 3.546875 -2.328125 L 2.28125 -1.109375 Z M 2.28125 0 "/></g></g></g></svg>