<svg xmlns="http://www.w3.org/2000/svg" xmlns:xlink="http://www.w3.org/1999/xlink" width="400" zoomAndPan="magnify" viewBox="0 0 300 299.999988" height="400" preserveAspectRatio="xMidYMid meet" version="1.0"><defs><filter x="0%" y="0%" width="100%" height="100%" id="881059472a"><feColorMatrix values="0 0 0 0 1 0 0 0 0 1 0 0 0 0 1 0 0 0 1 0" color-interpolation-filters="sRGB"/></filter><g/><mask id="0f40c576b2"><g filter="url(#881059472a)"><rect x="-30" width="360" fill="#000000" y="-29.999999" height="359.999986" fill-opacity="0.88"/></g></mask><clipPath id="dd6eabd512"><path d="M 1 0.621094 L 108.988281 0.621094 L 108.988281 108.621094 L 1 108.621094 Z M 1 0.621094 " clip-rule="nonzero"/></clipPath><clipPath id="e72b4d75e0"><rect x="0" width="109" y="0" height="109"/></clipPath><mask id="9bdf2f6f77"><g filter="url(#881059472a)"><rect x="-30" width="360" fill="#000000" y="-29.999999" height="359.999986" fill-opacity="0.88"/></g></mask><clipPath id="0e6e5f75ad"><path d="M 0.554688 0.875 L 111.804688 0.875 L 111.804688 112.128906 L 0.554688 112.128906 Z M 0.554688 0.875 " clip-rule="nonzero"/></clipPath><clipPath id="32e14c69f2"><rect x="0" width="113" y="0" height="113"/></clipPath></defs><g mask="url(#0f40c576b2)"><g transform="matrix(1, 0, 0, 1, 95, 71)"><g clip-path="url(#e72b4d75e0)"><g clip-path="url(#dd6eabd512)"><path fill="#05001e" d="M 54.996094 108.605469 C 69.417969 108.605469 82.976562 102.992188 93.175781 92.792969 C 103.375 82.59375 108.988281 69.035156 108.988281 54.613281 C 108.988281 40.191406 103.375 26.632812 93.175781 16.433594 C 82.976562 6.234375 69.417969 0.621094 54.996094 0.621094 C 40.574219 0.621094 27.015625 6.234375 16.816406 16.433594 C 6.617188 26.632812 1.003906 40.191406 1.003906 54.613281 C 1.003906 62.644531 3.253906 70.097656 3.359375 70.433594 C 4.257812 73.375 5.417969 76.257812 6.808594 79.007812 L 1.515625 105.761719 C 1.410156 106.289062 1.574219 106.832031 1.949219 107.21875 C 2.324219 107.601562 2.867188 107.777344 3.398438 107.683594 L 30.792969 102.882812 C 33.691406 104.339844 36.734375 105.539062 39.84375 106.449219 C 40.148438 106.539062 47.339844 108.605469 54.996094 108.605469 Z M 54.996094 108.605469 " fill-opacity="1" fill-rule="nonzero"/></g></g></g></g><g fill="#244254" fill-opacity="1"><g transform="translate(11.162543, 227.141549)"><g><path d="M 17.5 0.40625 C 14.8125 0.40625 12.390625 -0.0625 10.234375 -1 C 8.085938 -1.945312 6.398438 -3.28125 5.171875 -5 C 3.953125 -6.726562 3.34375 -8.742188 3.34375 -11.046875 L 10.359375 -11.046875 C 10.515625 -9.316406 11.195312 -7.894531 12.40625 -6.78125 C 13.613281 -5.675781 15.3125 -5.125 17.5 -5.125 C 19.757812 -5.125 21.519531 -5.671875 22.78125 -6.765625 C 24.050781 -7.859375 24.6875 -9.265625 24.6875 -10.984375 C 24.6875 -12.328125 24.289062 -13.421875 23.5 -14.265625 C 22.71875 -15.109375 21.738281 -15.757812 20.5625 -16.21875 C 19.394531 -16.6875 17.773438 -17.1875 15.703125 -17.71875 C 13.097656 -18.414062 10.976562 -19.117188 9.34375 -19.828125 C 7.71875 -20.535156 6.328125 -21.632812 5.171875 -23.125 C 4.023438 -24.625 3.453125 -26.625 3.453125 -29.125 C 3.453125 -31.425781 4.023438 -33.4375 5.171875 -35.15625 C 6.328125 -36.882812 7.941406 -38.207031 10.015625 -39.125 C 12.085938 -40.050781 14.484375 -40.515625 17.203125 -40.515625 C 21.078125 -40.515625 24.25 -39.546875 26.71875 -37.609375 C 29.195312 -35.671875 30.570312 -33.015625 30.84375 -29.640625 L 23.59375 -29.640625 C 23.476562 -31.097656 22.785156 -32.34375 21.515625 -33.375 C 20.253906 -34.414062 18.585938 -34.9375 16.515625 -34.9375 C 14.640625 -34.9375 13.101562 -34.453125 11.90625 -33.484375 C 10.71875 -32.523438 10.125 -31.144531 10.125 -29.34375 C 10.125 -28.113281 10.5 -27.101562 11.25 -26.3125 C 12 -25.53125 12.945312 -24.910156 14.09375 -24.453125 C 15.25 -23.992188 16.820312 -23.5 18.8125 -22.96875 C 21.457031 -22.238281 23.613281 -21.507812 25.28125 -20.78125 C 26.957031 -20.050781 28.378906 -18.925781 29.546875 -17.40625 C 30.722656 -15.894531 31.3125 -13.875 31.3125 -11.34375 C 31.3125 -9.300781 30.765625 -7.378906 29.671875 -5.578125 C 28.578125 -3.773438 26.984375 -2.328125 24.890625 -1.234375 C 22.796875 -0.140625 20.332031 0.40625 17.5 0.40625 Z M 17.5 0.40625 "/></g></g></g><g fill="#244254" fill-opacity="1"><g transform="translate(43.501543, 227.141549)"><g><path d="M 18.0625 0.515625 C 15.070312 0.515625 12.367188 -0.160156 9.953125 -1.515625 C 7.535156 -2.878906 5.632812 -4.796875 4.25 -7.265625 C 2.875 -9.742188 2.1875 -12.617188 2.1875 -15.890625 C 2.1875 -19.109375 2.894531 -21.960938 4.3125 -24.453125 C 5.726562 -26.953125 7.664062 -28.867188 10.125 -30.203125 C 12.582031 -31.546875 15.328125 -32.21875 18.359375 -32.21875 C 21.390625 -32.21875 24.128906 -31.546875 26.578125 -30.203125 C 29.035156 -28.867188 30.972656 -26.953125 32.390625 -24.453125 C 33.816406 -21.960938 34.53125 -19.109375 34.53125 -15.890625 C 34.53125 -12.660156 33.800781 -9.796875 32.34375 -7.296875 C 30.882812 -4.804688 28.894531 -2.878906 26.375 -1.515625 C 23.863281 -0.160156 21.09375 0.515625 18.0625 0.515625 Z M 18.0625 -5.171875 C 19.757812 -5.171875 21.34375 -5.570312 22.8125 -6.375 C 24.289062 -7.1875 25.488281 -8.398438 26.40625 -10.015625 C 27.332031 -11.628906 27.796875 -13.585938 27.796875 -15.890625 C 27.796875 -18.179688 27.351562 -20.125 26.46875 -21.71875 C 25.582031 -23.3125 24.410156 -24.507812 22.953125 -25.3125 C 21.503906 -26.125 19.9375 -26.53125 18.25 -26.53125 C 16.550781 -26.53125 14.984375 -26.125 13.546875 -25.3125 C 12.109375 -24.507812 10.96875 -23.3125 10.125 -21.71875 C 9.28125 -20.125 8.859375 -18.179688 8.859375 -15.890625 C 8.859375 -12.472656 9.726562 -9.832031 11.46875 -7.96875 C 13.21875 -6.101562 15.414062 -5.171875 18.0625 -5.171875 Z M 18.0625 -5.171875 "/></g></g></g><g fill="#244254" fill-opacity="1"><g transform="translate(77.797034, 227.141549)"><g><path d="M 10.875 -42.578125 L 10.875 0 L 4.3125 0 L 4.3125 -42.578125 Z M 10.875 -42.578125 "/></g></g></g><g fill="#244254" fill-opacity="1"><g transform="translate(90.571093, 227.141549)"><g><path d="M 33.03125 -31.703125 L 33.03125 0 L 26.46875 0 L 26.46875 -3.734375 C 25.4375 -2.429688 24.082031 -1.40625 22.40625 -0.65625 C 20.738281 0.0820312 18.96875 0.453125 17.09375 0.453125 C 14.59375 0.453125 12.351562 -0.0625 10.375 -1.09375 C 8.40625 -2.125 6.851562 -3.65625 5.71875 -5.6875 C 4.59375 -7.726562 4.03125 -10.1875 4.03125 -13.0625 L 4.03125 -31.703125 L 10.53125 -31.703125 L 10.53125 -14.046875 C 10.53125 -11.203125 11.238281 -9.019531 12.65625 -7.5 C 14.082031 -5.988281 16.019531 -5.234375 18.46875 -5.234375 C 20.925781 -5.234375 22.875 -5.988281 24.3125 -7.5 C 25.75 -9.019531 26.46875 -11.203125 26.46875 -14.046875 L 26.46875 -31.703125 Z M 33.03125 -31.703125 "/></g></g></g><g fill="#244254" fill-opacity="1"><g transform="translate(125.499573, 227.141549)"><g><path d="M 15.828125 0.515625 C 13.328125 0.515625 11.085938 0.0664062 9.109375 -0.828125 C 7.140625 -1.734375 5.578125 -2.960938 4.421875 -4.515625 C 3.273438 -6.066406 2.664062 -7.800781 2.59375 -9.71875 L 9.375 -9.71875 C 9.488281 -8.382812 10.128906 -7.265625 11.296875 -6.359375 C 12.472656 -5.453125 13.941406 -5 15.703125 -5 C 17.546875 -5 18.972656 -5.351562 19.984375 -6.0625 C 21.003906 -6.78125 21.515625 -7.691406 21.515625 -8.796875 C 21.515625 -9.992188 20.945312 -10.878906 19.8125 -11.453125 C 18.6875 -12.023438 16.894531 -12.65625 14.4375 -13.34375 C 12.0625 -14 10.125 -14.632812 8.625 -15.25 C 7.132812 -15.863281 5.84375 -16.800781 4.75 -18.0625 C 3.65625 -19.332031 3.109375 -21.003906 3.109375 -23.078125 C 3.109375 -24.765625 3.601562 -26.304688 4.59375 -27.703125 C 5.59375 -29.109375 7.023438 -30.210938 8.890625 -31.015625 C 10.753906 -31.816406 12.894531 -32.21875 15.3125 -32.21875 C 18.914062 -32.21875 21.816406 -31.304688 24.015625 -29.484375 C 26.222656 -27.671875 27.40625 -25.191406 27.5625 -22.046875 L 21 -22.046875 C 20.882812 -23.460938 20.304688 -24.59375 19.265625 -25.4375 C 18.234375 -26.28125 16.835938 -26.703125 15.078125 -26.703125 C 13.347656 -26.703125 12.019531 -26.375 11.09375 -25.71875 C 10.175781 -25.070312 9.71875 -24.210938 9.71875 -23.140625 C 9.71875 -22.296875 10.023438 -21.582031 10.640625 -21 C 11.253906 -20.425781 12.003906 -19.972656 12.890625 -19.640625 C 13.773438 -19.316406 15.078125 -18.910156 16.796875 -18.421875 C 19.097656 -17.804688 20.988281 -17.179688 22.46875 -16.546875 C 23.945312 -15.910156 25.222656 -14.976562 26.296875 -13.75 C 27.367188 -12.519531 27.925781 -10.890625 27.96875 -8.859375 C 27.96875 -7.054688 27.46875 -5.445312 26.46875 -4.03125 C 25.46875 -2.613281 24.054688 -1.5 22.234375 -0.6875 C 20.421875 0.113281 18.285156 0.515625 15.828125 0.515625 Z M 15.828125 0.515625 "/></g></g></g><g fill="#244254" fill-opacity="1"><g transform="translate(153.810484, 227.141549)"><g><path d="M 2.125 -20.078125 C 2.125 -23.992188 3.035156 -27.503906 4.859375 -30.609375 C 6.679688 -33.722656 9.15625 -36.148438 12.28125 -37.890625 C 15.40625 -39.640625 18.832031 -40.515625 22.5625 -40.515625 C 26.820312 -40.515625 30.609375 -39.46875 33.921875 -37.375 C 37.242188 -35.28125 39.648438 -32.316406 41.140625 -28.484375 L 33.265625 -28.484375 C 32.222656 -30.597656 30.78125 -32.171875 28.9375 -33.203125 C 27.101562 -34.242188 24.976562 -34.765625 22.5625 -34.765625 C 19.914062 -34.765625 17.554688 -34.164062 15.484375 -32.96875 C 13.410156 -31.78125 11.785156 -30.070312 10.609375 -27.84375 C 9.441406 -25.625 8.859375 -23.035156 8.859375 -20.078125 C 8.859375 -17.128906 9.441406 -14.539062 10.609375 -12.3125 C 11.785156 -10.09375 13.410156 -8.378906 15.484375 -7.171875 C 17.554688 -5.960938 19.914062 -5.359375 22.5625 -5.359375 C 24.976562 -5.359375 27.101562 -5.875 28.9375 -6.90625 C 30.78125 -7.9375 32.222656 -9.507812 33.265625 -11.625 L 41.140625 -11.625 C 39.648438 -7.789062 37.242188 -4.835938 33.921875 -2.765625 C 30.609375 -0.691406 26.820312 0.34375 22.5625 0.34375 C 18.800781 0.34375 15.363281 -0.523438 12.25 -2.265625 C 9.144531 -4.015625 6.679688 -6.441406 4.859375 -9.546875 C 3.035156 -12.660156 2.125 -16.171875 2.125 -20.078125 Z M 2.125 -20.078125 "/></g></g></g><g fill="#244254" fill-opacity="1"><g transform="translate(195.8744, 227.141549)"><g><path d="M 20.71875 -32.21875 C 23.132812 -32.21875 25.289062 -31.703125 27.1875 -30.671875 C 29.09375 -29.640625 30.585938 -28.101562 31.671875 -26.0625 C 32.765625 -24.03125 33.3125 -21.578125 33.3125 -18.703125 L 33.3125 0 L 26.8125 0 L 26.8125 -17.71875 C 26.8125 -20.5625 26.101562 -22.738281 24.6875 -24.25 C 23.269531 -25.769531 21.332031 -26.53125 18.875 -26.53125 C 16.414062 -26.53125 14.46875 -25.769531 13.03125 -24.25 C 11.59375 -22.738281 10.875 -20.5625 10.875 -17.71875 L 10.875 0 L 4.3125 0 L 4.3125 -42.578125 L 10.875 -42.578125 L 10.875 -28.03125 C 11.988281 -29.375 13.398438 -30.40625 15.109375 -31.125 C 16.816406 -31.851562 18.6875 -32.21875 20.71875 -32.21875 Z M 20.71875 -32.21875 "/></g></g></g><g fill="#244254" fill-opacity="1"><g transform="translate(230.80288, 227.141549)"><g><path d="M 2.125 -16 C 2.125 -19.1875 2.785156 -22.003906 4.109375 -24.453125 C 5.429688 -26.910156 7.234375 -28.816406 9.515625 -30.171875 C 11.804688 -31.535156 14.332031 -32.21875 17.09375 -32.21875 C 19.582031 -32.21875 21.753906 -31.726562 23.609375 -30.75 C 25.472656 -29.78125 26.960938 -28.566406 28.078125 -27.109375 L 28.078125 -31.703125 L 34.703125 -31.703125 L 34.703125 0 L 28.078125 0 L 28.078125 -4.71875 C 26.960938 -3.21875 25.445312 -1.96875 23.53125 -0.96875 C 21.613281 0.0195312 19.425781 0.515625 16.96875 0.515625 C 14.25 0.515625 11.753906 -0.179688 9.484375 -1.578125 C 7.222656 -2.984375 5.429688 -4.941406 4.109375 -7.453125 C 2.785156 -9.960938 2.125 -12.8125 2.125 -16 Z M 28.078125 -15.890625 C 28.078125 -18.066406 27.625 -19.960938 26.71875 -21.578125 C 25.820312 -23.191406 24.644531 -24.421875 23.1875 -25.265625 C 21.726562 -26.109375 20.15625 -26.53125 18.46875 -26.53125 C 16.78125 -26.53125 15.207031 -26.113281 13.75 -25.28125 C 12.289062 -24.457031 11.109375 -23.25 10.203125 -21.65625 C 9.304688 -20.070312 8.859375 -18.1875 8.859375 -16 C 8.859375 -13.8125 9.304688 -11.890625 10.203125 -10.234375 C 11.109375 -8.585938 12.300781 -7.332031 13.78125 -6.46875 C 15.257812 -5.601562 16.820312 -5.171875 18.46875 -5.171875 C 20.15625 -5.171875 21.726562 -5.59375 23.1875 -6.4375 C 24.644531 -7.289062 25.820312 -8.53125 26.71875 -10.15625 C 27.625 -11.789062 28.078125 -13.703125 28.078125 -15.890625 Z M 28.078125 -15.890625 "/></g></g></g><g fill="#244254" fill-opacity="1"><g transform="translate(267.40012, 227.141549)"><g><path d="M 11.96875 -26.359375 L 11.96875 -8.796875 C 11.96875 -7.609375 12.242188 -6.753906 12.796875 -6.234375 C 13.359375 -5.722656 14.3125 -5.46875 15.65625 -5.46875 L 19.6875 -5.46875 L 19.6875 0 L 14.5 0 C 11.550781 0 9.289062 -0.6875 7.71875 -2.0625 C 6.144531 -3.445312 5.359375 -5.691406 5.359375 -8.796875 L 5.359375 -26.359375 L 1.609375 -26.359375 L 1.609375 -31.703125 L 5.359375 -31.703125 L 5.359375 -39.59375 L 11.96875 -39.59375 L 11.96875 -31.703125 L 19.6875 -31.703125 L 19.6875 -26.359375 Z M 11.96875 -26.359375 "/></g></g></g><g mask="url(#9bdf2f6f77)"><g transform="matrix(1, 0, 0, 1, 108, 45)"><g clip-path="url(#32e14c69f2)"><g clip-path="url(#0e6e5f75ad)"><path fill="#68f48f" d="M 56.332031 112.433594 C 41.433594 112.433594 27.425781 106.632812 16.890625 96.097656 C 6.355469 85.5625 0.554688 71.554688 0.554688 56.65625 C 0.554688 41.757812 6.355469 27.75 16.890625 17.214844 C 27.425781 6.679688 41.433594 0.875 56.332031 0.875 C 71.230469 0.875 85.238281 6.679688 95.773438 17.214844 C 106.308594 27.75 112.109375 41.757812 112.109375 56.65625 C 112.109375 64.953125 109.785156 72.648438 109.675781 73 C 108.75 76.039062 107.550781 79.015625 106.113281 81.855469 L 111.578125 109.492188 C 111.6875 110.039062 111.519531 110.601562 111.132812 111 C 110.742188 111.394531 110.183594 111.574219 109.636719 111.480469 L 81.332031 106.519531 C 78.339844 108.027344 75.195312 109.265625 71.984375 110.203125 C 71.671875 110.296875 64.238281 112.433594 56.332031 112.433594 Z M 56.332031 112.433594 " fill-opacity="1" fill-rule="nonzero"/></g></g></g></g><g fill="#f8f8f8" fill-opacity="1"><g transform="translate(138.089071, 134.212352)"><g><path d="M 48.734375 -18.890625 C 48.734375 -12.753906 46.519531 -7.914062 42.09375 -4.375 C 37.675781 -0.832031 31.523438 0.9375 23.640625 0.9375 C 16.378906 0.9375 9.957031 -0.429688 4.375 -3.171875 L 4.375 -16.5625 C 8.96875 -14.519531 12.851562 -13.078125 16.03125 -12.234375 C 19.207031 -11.398438 22.117188 -10.984375 24.765625 -10.984375 C 27.921875 -10.984375 30.34375 -11.585938 32.03125 -12.796875 C 33.726562 -14.003906 34.578125 -15.804688 34.578125 -18.203125 C 34.578125 -19.535156 34.203125 -20.71875 33.453125 -21.75 C 32.710938 -22.789062 31.617188 -23.789062 30.171875 -24.75 C 28.734375 -25.71875 25.796875 -27.253906 21.359375 -29.359375 C 17.203125 -31.316406 14.082031 -33.195312 12 -35 C 9.925781 -36.800781 8.269531 -38.894531 7.03125 -41.28125 C 5.789062 -43.664062 5.171875 -46.457031 5.171875 -49.65625 C 5.171875 -55.675781 7.207031 -60.40625 11.28125 -63.84375 C 15.363281 -67.289062 21.003906 -69.015625 28.203125 -69.015625 C 31.742188 -69.015625 35.117188 -68.59375 38.328125 -67.75 C 41.535156 -66.914062 44.894531 -65.738281 48.40625 -64.21875 L 43.75 -53.015625 C 40.113281 -54.492188 37.109375 -55.53125 34.734375 -56.125 C 32.367188 -56.71875 30.035156 -57.015625 27.734375 -57.015625 C 25.003906 -57.015625 22.910156 -56.375 21.453125 -55.09375 C 19.992188 -53.820312 19.265625 -52.164062 19.265625 -50.125 C 19.265625 -48.851562 19.554688 -47.742188 20.140625 -46.796875 C 20.734375 -45.847656 21.675781 -44.929688 22.96875 -44.046875 C 24.257812 -43.160156 27.304688 -41.570312 32.109375 -39.28125 C 38.472656 -36.238281 42.832031 -33.1875 45.1875 -30.125 C 47.550781 -27.070312 48.734375 -23.328125 48.734375 -18.890625 Z M 48.734375 -18.890625 "/></g></g></g></svg>